<svg width="139" height="28" viewBox="0 0 139 28" fill="none" xmlns="http://www.w3.org/2000/svg">
<path d="M5 14C5 14 7.545 9 12 9C16.454 9 19 14 19 14C19 14 16.454 19 12 19C7.545 19 5 14 5 14Z" stroke="white" stroke-width="2" stroke-linecap="round" strokeLinejoin="round"/>
<path d="M12 15C12.2652 15 12.5196 14.8946 12.7071 14.7071C12.8946 14.5196 13 14.2652 13 14C13 13.7348 12.8946 13.4804 12.7071 13.2929C12.5196 13.1054 12.2652 13 12 13C11.7348 13 11.4804 13.1054 11.2929 13.2929C11.1054 13.4804 11 13.7348 11 14C11 14.2652 11.1054 14.5196 11.2929 14.7071C11.4804 14.8946 11.7348 15 12 15Z" stroke="white" stroke-width="2" stroke-linecap="round" strokeLinejoin="round"/>
<path d="M21 19V21C21 21.5304 20.7893 22.0391 20.4142 22.4142C20.0391 22.7893 19.5304 23 19 23H5C4.46957 23 3.96086 22.7893 3.58579 22.4142C3.21071 22.0391 3 21.5304 3 21V19" stroke="white" stroke-width="2" stroke-linecap="round" strokeLinejoin="round"/>
<path d="M21 9V7C21 6.46957 20.7893 5.96086 20.4142 5.58579C20.0391 5.21071 19.5304 5 19 5H5C4.46957 5 3.96086 5.21071 3.58579 5.58579C3.21071 5.96086 3 6.46957 3 7V9" stroke="white" stroke-width="2" stroke-linecap="round" strokeLinejoin="round"/>
<path d="M34.885 22L42.13 5.9H45.074L52.342 22H49.214L42.981 7.487H44.177L37.967 22H34.885ZM38.22 18.274L39.025 15.928H47.719L48.524 18.274H38.22ZM56.2295 22V5.9H63.2675C65.0155 5.9 66.5489 6.23733 67.8675 6.912C69.1862 7.58667 70.2135 8.522 70.9495 9.718C71.6855 10.914 72.0535 12.3247 72.0535 13.95C72.0535 15.56 71.6855 16.9707 70.9495 18.182C70.2135 19.378 69.1862 20.3133 67.8675 20.988C66.5489 21.6627 65.0155 22 63.2675 22H56.2295ZM59.2195 19.47H63.1295C64.3409 19.47 65.3835 19.24 66.2575 18.78C67.1469 18.32 67.8292 17.676 68.3045 16.848C68.7952 16.02 69.0405 15.054 69.0405 13.95C69.0405 12.8307 68.7952 11.8647 68.3045 11.052C67.8292 10.224 67.1469 9.58 66.2575 9.12C65.3835 8.66 64.3409 8.43 63.1295 8.43H59.2195V19.47ZM82.0625 22.23C80.8052 22.23 79.6015 22.0537 78.4515 21.701C77.3015 21.333 76.3892 20.8653 75.7145 20.298L76.7495 17.975C77.3935 18.481 78.1908 18.9027 79.1415 19.24C80.0922 19.5773 81.0658 19.746 82.0625 19.746C82.9058 19.746 83.5882 19.654 84.1095 19.47C84.6308 19.286 85.0142 19.0407 85.2595 18.734C85.5048 18.412 85.6275 18.0517 85.6275 17.653C85.6275 17.1623 85.4512 16.7713 85.0985 16.48C84.7458 16.1733 84.2858 15.9357 83.7185 15.767C83.1665 15.583 82.5455 15.4143 81.8555 15.261C81.1808 15.1077 80.4985 14.9313 79.8085 14.732C79.1338 14.5173 78.5128 14.249 77.9455 13.927C77.3935 13.5897 76.9412 13.145 76.5885 12.593C76.2358 12.041 76.0595 11.3357 76.0595 10.477C76.0595 9.603 76.2895 8.80567 76.7495 8.085C77.2248 7.349 77.9378 6.76633 78.8885 6.337C79.8545 5.89233 81.0735 5.67 82.5455 5.67C83.5115 5.67 84.4698 5.79267 85.4205 6.038C86.3712 6.28333 87.1992 6.636 87.9045 7.096L86.9615 9.419C86.2408 8.98967 85.4972 8.67533 84.7305 8.476C83.9638 8.26133 83.2278 8.154 82.5225 8.154C81.6945 8.154 81.0198 8.25367 80.4985 8.453C79.9925 8.65233 79.6168 8.913 79.3715 9.235C79.1415 9.557 79.0265 9.925 79.0265 10.339C79.0265 10.8297 79.1952 11.2283 79.5325 11.535C79.8852 11.8263 80.3375 12.0563 80.8895 12.225C81.4568 12.3937 82.0855 12.5623 82.7755 12.731C83.4655 12.8843 84.1478 13.0607 84.8225 13.26C85.5125 13.4593 86.1335 13.72 86.6855 14.042C87.2528 14.364 87.7052 14.801 88.0425 15.353C88.3952 15.905 88.5715 16.6027 88.5715 17.446C88.5715 18.3047 88.3338 19.102 87.8585 19.838C87.3985 20.5587 86.6855 21.1413 85.7195 21.586C84.7535 22.0153 83.5345 22.23 82.0625 22.23ZM93.3763 22V5.9H100.92C102.852 5.9 104.324 6.28333 105.336 7.05C106.348 7.80133 106.854 8.81333 106.854 10.086C106.854 10.9447 106.655 11.6807 106.256 12.294C105.858 12.892 105.321 13.3597 104.646 13.697C103.987 14.019 103.266 14.18 102.484 14.18L102.898 13.352C103.803 13.352 104.616 13.5207 105.336 13.858C106.057 14.18 106.624 14.6553 107.038 15.284C107.468 15.9127 107.682 16.6947 107.682 17.63C107.682 19.01 107.153 20.0833 106.095 20.85C105.037 21.6167 103.466 22 101.38 22H93.3763ZM96.3663 19.654H101.196C102.316 19.654 103.174 19.47 103.772 19.102C104.37 18.734 104.669 18.1437 104.669 17.331C104.669 16.5337 104.37 15.951 103.772 15.583C103.174 15.1997 102.316 15.008 101.196 15.008H96.1363V12.685H100.598C101.641 12.685 102.438 12.501 102.99 12.133C103.558 11.765 103.841 11.213 103.841 10.477C103.841 9.72567 103.558 9.166 102.99 8.798C102.438 8.43 101.641 8.246 100.598 8.246H96.3663V19.654ZM112.713 22V5.9H115.703V22H112.713ZM121.898 22V5.9H124.359L134.456 18.297H133.237V5.9H136.204V22H133.743L123.646 9.603H124.865V22H121.898Z" fill="white"/>
</svg>
